<svg width="226" height="75" viewBox="0 0 226 75" fill="none" xmlns="http://www.w3.org/2000/svg">
<path d="M85.8744 42.937C85.8744 55.0557 80.853 66.0032 72.7779 73.81H13.0955C5.02039 66.0032 0 55.056 0 42.937C0 19.2233 19.2228 0 42.936 0C66.6501 0 85.8744 19.2233 85.8744 42.937Z" fill="black"/>
<path fill-rule="evenodd" clip-rule="evenodd" d="M14.464 72.1556H66.2855C73.2503 65.3942 77.5798 55.934 77.5798 45.4605C77.5798 24.9136 60.9227 8.2561 40.3743 8.2561C19.8275 8.2561 3.17041 24.9136 3.17041 45.4605C3.17041 55.934 7.49889 65.3942 14.4642 72.1556H14.464Z" fill="url(#paint0_linear_375_18177)"/>
<path d="M67.3711 71.619H13.4993C14.2647 72.3133 15.064 72.9774 15.8932 73.6103H64.9762C65.8063 72.9776 66.6051 72.3133 67.3711 71.619Z" fill="black"/>
<path d="M60.3632 38.1345C60.3632 38.1345 61.1133 42.9863 54.9866 41.0846C54.9145 41.0631 52.6628 40.662 51.7363 39.511C51.7363 39.511 47.5834 33.0184 42.9587 32.7575C42.8836 32.7535 41.1147 32.6834 39.5583 32.6834C39.4833 32.6834 35.6819 32.383 34.1813 30.4336C34.1166 30.3494 31.2322 26.5561 28.3552 27.3325C28.2836 27.3522 25.8543 27.0054 21.3296 33.2346C21.2852 33.2946 19.0532 35.8586 16.6274 34.4345C16.563 34.3958 14.7262 33.7597 12.7028 36.2328C12.6544 36.2908 9.57423 39.3614 8.00107 40.5593C8.00107 40.5593 6.3509 43.3605 7.40074 49.2632C7.41358 49.3362 7.85 51.4633 7.3257 53.038C7.30175 53.1096 8.14992 54.8642 8.30025 55.1638C8.33308 55.231 9.22593 54.7146 8.7505 52.7388C8.7505 52.7388 8.44984 51.6139 8.85196 49.1879C8.85196 49.1879 8.67546 46.36 8.30025 45.3109C8.30025 45.3109 8.927 44.0364 9.22593 46.6873C9.23877 46.7927 9.60065 51.6882 10.2007 53.1133C10.2304 53.1824 11.3261 57.2633 10.5754 62.2657C10.5515 62.4318 10.4268 64.4673 9.60065 65.8906C9.56436 65.9563 9.07782 66.8926 10.1272 67.4176C10.1943 67.4509 13.3019 71.8947 13.3019 72.7194L15.2786 72.945C15.2786 72.945 14.802 71.5676 13.9763 70.4437C13.9763 70.4437 13.7526 69.1419 14.9037 70.8923C14.9449 70.9554 15.8029 72.1677 16.0281 73.0191C16.0545 73.1215 18.0033 73.2442 18.0033 73.2442C18.0033 73.2442 16.1026 70.3682 15.6524 67.8666C15.6395 67.7941 15.9799 66.2661 15.2038 65.2162C15.2038 65.2162 14.8017 64.9165 15.953 56.8891C15.9624 56.8145 17.2275 54.8644 17.4531 53.5628C17.4645 53.4897 16.7785 51.5386 18.0784 50.2375C18.0784 50.2375 20.6552 49.1615 21.0299 50.6127C21.0299 50.6127 23.5039 53.4887 29.8553 53.9385C29.8553 53.9385 33.2825 54.4151 36.9074 53.4132C36.9074 53.4132 38.1819 53.7134 39.6336 53.7889C39.6336 53.7889 38.8568 61.7413 37.7324 64.2424C37.7324 64.2424 36.7576 65.5914 37.3582 67.7175C37.3861 67.8195 37.9575 68.2697 36.0822 71.9702C36.0489 72.0374 38.1074 72.42 38.1074 72.42C38.1074 72.42 37.5816 72.5422 39.4833 68.617C39.5171 68.5494 40.8333 67.193 40.6832 64.5421C40.6778 64.4357 40.8817 62.2168 41.5825 60.7661C41.5825 60.7661 41.8081 59.6147 41.7331 62.1906C41.7331 62.1906 40.9819 65.7405 41.4334 67.6427C41.4569 67.7457 42.1347 68.8696 41.3589 72.5696C41.3359 72.6735 43.4847 73.0939 43.4847 73.0939C43.4847 73.0939 42.6588 71.3423 43.7098 67.6427C43.7496 67.4981 45.0579 66.2658 44.3827 63.3148C44.3827 63.3148 44.6824 58.79 46.2104 54.1629C46.2104 54.1629 46.5846 53.5625 46.8848 52.7388C46.8848 52.7388 48.9356 51.688 49.3856 50.762C49.4184 50.6949 49.5357 49.4881 52.4853 49.7117C52.4853 49.7117 60.7394 50.237 64.2147 45.6367C64.2147 45.6367 67.5385 43.3608 67.2394 36.0087C67.2394 36.0087 68.4388 33.6093 70.8643 32.6069C70.8643 32.6069 73.6653 34.5086 73.6653 31.0332C73.6653 30.9587 73.2901 28.5319 70.265 28.2327C70.1894 28.2263 68.0824 28.289 67.464 28.9079C67.389 28.9824 65.7124 29.5062 64.8146 28.4581C64.7645 28.4011 63.9146 28.0074 62.9869 28.5322C62.9218 28.5694 60.8877 27.7089 60.8877 28.9079C60.8877 28.9824 61.1879 30.7345 60.6636 33.2349C60.6473 33.3084 60.439 35.9339 60.439 37.2353C60.439 37.3103 60.3629 38.1348 60.3629 38.1348L60.3632 38.1345Z" fill="black"/>
<path fill-rule="evenodd" clip-rule="evenodd" d="M95.0878 30.9525V42.9639V46.3583H106.314L106.443 46.0967L106.575 45.7057L106.705 45.3144L106.834 45.053L106.966 44.5307L107.096 44.1384L107.225 43.8785L107.357 43.3562V43.0945H104.355L99.6567 43.2253V39.8299V35.2615L99.787 28.4732V27.6887H95.0878V30.9525Z" fill="black"/>
<path fill-rule="evenodd" clip-rule="evenodd" d="M109.056 29.5144V44.3974V46.3564H120.151L120.283 46.2255L120.412 45.8343L120.541 45.3124L120.673 45.051L120.803 44.6588L120.934 44.2673L121.064 43.8765L121.196 43.6156V43.0925H120.02L113.625 43.2234V39.6981V38.3923H116.366L119.759 38.5226H120.151L120.283 38.3923V35.2596L120.151 35.1287H118.061L113.48 35.2581L113.625 34.0843V30.8153L119.759 30.9506H120.412V27.6868H109.056V29.5144Z" fill="black"/>
<path fill-rule="evenodd" clip-rule="evenodd" d="M207.339 27.9482L207.468 28.2091L207.597 28.3409L207.729 28.6009L207.859 28.7307L207.988 28.9921L208.12 29.1227L208.25 29.2535L208.381 29.5144L208.511 29.6448L208.643 29.9072L208.773 30.1676L208.903 30.2984L209.035 30.4295L209.164 30.6889L209.295 30.8198L209.425 30.9506L209.555 31.213L209.687 31.4724L209.816 31.604L209.946 31.8657L210.078 31.9952L210.209 32.2567L210.339 32.386L210.47 32.5173L210.6 32.7787L210.732 32.9093L210.86 33.1702L210.991 33.3006L211.123 33.5625L211.253 33.6933L211.384 33.9537L211.514 34.0843L211.646 34.3457L211.775 34.6064L211.904 34.737L212.036 34.9981L212.166 35.1287L212.296 35.3902L212.428 35.5205L212.558 35.7819L212.689 35.9132L212.819 36.1736L212.951 36.3032L213.08 36.5646L213.21 36.8256L213.342 36.9559L213.472 37.2173L213.601 37.3481L213.733 37.6096L213.862 37.8705L213.994 38.0003L214.124 38.2617L214.255 38.3923V41.0035L214.124 44.7896V46.3564H218.822V44.1365V38.2617L218.954 38.0003L219.084 37.8705L219.214 37.6096L219.343 37.479L219.475 37.3481L219.606 37.0872L219.737 36.9559L219.867 36.6955L219.998 36.5646L220.128 36.3032L220.259 36.1736L220.388 35.9132L220.519 35.7819L220.65 35.5205L220.782 35.3902L220.911 35.2596L221.042 34.9981L221.173 34.8678L221.304 34.6064L221.434 34.4756L221.563 34.2147L221.696 34.0843L221.825 33.8229L221.955 33.6933L222.086 33.4314L222.216 33.3006L222.348 33.1702L222.477 32.9093L222.608 32.7787L222.739 32.5173L222.869 32.386L223 32.1261L223.13 31.9952L223.261 31.8657L223.392 31.604L223.521 31.4724L223.651 31.213L223.783 31.0812L223.913 30.9506L224.044 30.6889L224.174 30.5583L224.305 30.2984L224.435 30.1676L224.565 29.9072L224.696 29.7763L224.826 29.6448L224.957 29.3841L225.089 29.2535L225.218 28.9921L225.35 28.8613L225.48 28.7307L225.609 28.6009L225.741 28.3409L225.87 28.2091L226 27.9482V27.6868H220.911L220.782 27.9482L220.65 28.079L220.519 28.4713L220.388 28.6009L220.259 28.8613L220.128 28.9921L219.998 29.3841L219.867 29.5144L219.737 29.7763L219.606 30.0378L219.475 30.2984L219.343 30.5583L219.214 30.6889L219.084 30.9506L218.954 31.213L218.822 31.4724L218.693 31.7348L218.561 31.9952L218.431 32.1261L218.302 32.386L218.169 32.6479L218.041 32.9093L217.909 33.1702L217.779 33.4314L217.649 33.5625L217.517 33.9537L217.387 34.0843L217.256 34.4756L217.127 34.6064L216.997 34.8678V35.1287H216.734V34.8678L216.604 34.6064L216.473 34.3457L216.343 34.0843L216.212 33.9537L216.082 33.5625L215.953 33.4314L215.821 33.1702L215.691 32.9093L215.56 32.6479L215.43 32.386L215.298 32.1261L215.168 31.9952L215.038 31.7348L214.907 31.4724L214.778 31.213L214.646 30.9506L214.515 30.6889L214.386 30.5583L214.255 30.2984L214.124 30.0378L213.994 29.7763L213.862 29.6448L213.733 29.3841L213.601 29.1227L213.472 28.8613L213.342 28.6009L213.21 28.4713L213.08 28.2091L212.951 27.9482L212.819 27.6868H207.339V27.9482Z" fill="black"/>
<path fill-rule="evenodd" clip-rule="evenodd" d="M156.172 38.9169L156.041 39.4397L155.911 39.8305L155.782 40.0924L155.65 40.3533L155.52 40.4841L155.389 40.7445L155.259 40.8764L155.127 41.0062L154.997 41.2676L154.868 41.3984L154.735 41.5288L154.476 41.6591L154.345 41.7899L154.215 41.9208L154.083 42.0521L153.824 42.1812L153.561 42.3125L153.301 42.4433L153.039 42.5732L152.781 42.7043L152.258 42.8346L151.866 42.9654L150.952 43.0962L147.949 43.2271V42.4438V31.4761V30.8156L150.69 30.9543L151.865 31.0851L152.518 31.2167L152.78 31.3465L153.169 31.4764L153.43 31.608L153.692 31.7388L153.954 31.8696L154.215 31.9992L154.345 32.13L154.606 32.2609L154.735 32.3902L154.868 32.5213L154.998 32.6521L155.127 32.783L155.259 33.0444L155.389 33.1747L155.52 33.4356L155.65 33.5667L155.782 33.8271L155.911 34.0885L156.042 34.4798L156.173 34.872L156.303 35.3944V38.3965L156.173 38.9186L156.172 38.9169ZM143.252 28.2116L143.382 30.8222V43.0953L143.252 45.837V46.3591H151.604L152.649 46.2283L153.301 46.0974L153.954 45.9671L154.345 45.8368L154.736 45.7059L155.127 45.5756L155.521 45.4448L155.651 45.3144L156.042 45.1834L156.303 45.053L156.565 44.9222L156.826 44.7914L156.956 44.6605L157.216 44.5302L157.347 44.3991L157.61 44.2688L157.739 44.138L157.869 44.0071L158 43.8778L158.262 43.7474L158.392 43.6166V43.3552H158.652V43.0938H158.914L159.044 42.8324L159.175 42.702L159.306 42.571L159.437 42.3105L159.568 42.1792L159.697 42.0501L159.828 41.7882L159.958 41.5273L160.09 41.397L160.219 41.0047L160.349 40.8749L160.48 40.4826L160.611 40.0909L160.741 39.829L160.872 39.1778L161.002 38.7856L161.134 37.7411V34.9989L161.002 34.2154L160.872 33.6941L160.741 33.171L160.611 32.9101L160.48 32.5178L160.349 32.2574L160.219 31.996L160.09 31.7356L159.958 31.6047L159.828 31.3433L159.697 31.2135L159.568 31.0819L159.437 30.9511L159.306 30.8203L159.175 30.5589L159.044 30.43L158.914 30.2989L158.783 30.1681L158.652 30.0383L158.391 29.9074L158.261 29.7766L158.132 29.6448L157.869 29.5144L157.738 29.3841L157.478 29.2533L157.346 29.1224L157.086 28.9916L156.826 28.8608L156.565 28.73L156.173 28.6001L155.911 28.4703L155.389 28.3399L154.998 28.2081L154.477 28.0778L153.954 27.947L153.039 27.8154L151.343 27.6855H143.253V28.2079L143.252 28.2116Z" fill="black"/>
<path fill-rule="evenodd" clip-rule="evenodd" d="M129.156 38.5201L129.287 38.2591L129.417 37.8679L129.549 37.4761L129.679 37.2147L129.809 36.823L129.94 36.4312L130.07 36.04L130.202 35.7791L130.332 35.3873L130.463 35.1259L130.594 34.7342L130.723 34.3429L130.853 33.9507L130.984 33.5594L131.114 33.2975L131.245 32.9062L131.375 32.514L131.506 32.2536L131.637 32.6448L131.767 33.0371L131.898 33.4283L132.028 33.6902L132.159 34.2116L132.289 34.4725L132.419 34.9951L132.551 35.2565L132.681 35.7791L132.812 36.1708L132.943 36.4312L133.073 36.9531L133.204 37.2145L133.333 37.6067L133.464 37.9975L133.595 38.3897L133.726 38.782L129.008 38.7751L129.157 38.5201H129.156ZM129.809 27.6842L129.679 27.9456L129.549 28.3383L129.417 28.5983L129.287 28.9895L129.156 29.2509L129.026 29.6422L128.896 29.9046L128.765 30.2958L128.635 30.5558L128.504 30.8172L128.373 31.2104L128.242 31.4698L128.111 31.8631L127.981 32.1235L127.85 32.3834L127.721 32.6453L127.59 33.0376L127.46 33.298L127.329 33.6907L127.2 34.082L127.067 34.2123L126.937 34.6041L126.806 34.8655L126.676 35.2572L126.547 35.5181L126.415 35.7796L126.285 36.1713L126.153 36.4317L126.024 36.8235L125.893 36.9538L125.762 37.346L125.632 37.6075L125.5 37.9982L125.371 38.2596L125.241 38.5206L125.11 38.9123L124.98 39.1747L124.849 39.4351L124.718 39.696L124.587 40.0878L124.457 40.3487L124.327 40.6101L124.195 41.0014L124.065 41.2628L123.935 41.5237L123.802 41.7846L123.673 42.1759L123.543 42.4378L123.413 42.6987L123.282 43.0904L123.152 43.2213L123.02 43.6135L122.89 43.8744L122.759 44.1344L122.629 44.3953L122.497 44.7875L122.368 45.0489L122.238 45.3104L122.106 45.5713L121.976 45.8322L121.845 46.2234V46.3543H126.152L126.284 46.2234L126.413 45.8322L126.545 45.5713L126.675 45.179L126.805 44.7873L126.936 44.5264L127.066 44.1341L127.198 43.8742L127.328 43.4814L127.458 43.221L127.589 42.8288L127.72 42.4375L127.848 42.1756V41.9108L134.767 42.0465L134.899 42.4378L135.028 42.829L135.158 43.2213L135.289 43.6135L135.419 44.0038L135.551 44.2652L135.681 44.7878L135.813 45.1795L135.943 45.4409L136.072 45.8327L136.204 46.0931L136.333 46.3545H141.555V45.9628L141.424 45.8324L141.294 45.4407L141.164 45.1793L141.032 44.7875L140.902 44.5266L140.77 44.2652L140.641 43.8744L140.51 43.6135L140.379 43.3521L140.25 43.0907L140.118 42.6989L139.989 42.438L139.857 42.1761L139.727 41.7849L139.597 41.5239L139.465 41.1322L139.336 40.8718L139.205 40.4795L139.074 40.2186L138.943 39.9572L138.813 39.566L138.682 39.3045L138.552 38.9123L138.421 38.6509L138.29 38.2596L138.161 37.9982L138.03 37.6075L137.899 37.4766L137.769 37.0849L137.638 36.6931L137.508 36.4317L137.376 36.0405L137.246 35.7796L137.115 35.3878L136.985 35.1264L136.855 34.7346L136.723 34.3434L136.593 34.082L136.462 33.6907L136.332 33.4288L136.202 33.0376L136.071 32.7762L135.941 32.3834L135.811 31.9927L135.68 31.6014L135.55 31.2102L135.418 30.9477L135.288 30.5555L135.156 30.2956L135.027 29.9043L134.897 29.6419L134.765 29.1201L134.636 28.7279L134.506 28.4684L134.374 28.0762L134.243 27.6839L134.113 27.5536H129.937L129.806 27.6839L129.809 27.6842Z" fill="black"/>
<path fill-rule="evenodd" clip-rule="evenodd" d="M162.439 27.9482L162.57 28.2091L162.7 28.6009L162.831 28.8613L162.961 29.2535L163.092 29.6448L163.224 30.0378L163.353 30.2984L163.482 30.6889L163.614 31.0812L163.746 31.3426L163.876 31.7348L164.005 31.9952L164.137 32.5173L164.267 32.7787L164.396 33.1702L164.528 33.5625L164.657 33.9537L164.787 34.3457L164.919 34.6064L165.05 34.9981L165.181 35.3901L165.311 35.7819L165.441 36.1736L165.572 36.5646L165.701 36.9559L165.833 37.2173L165.963 37.7404L166.094 38.0003L166.224 38.3923L166.354 38.7845L166.487 39.1768L166.615 39.568L166.746 39.9593L166.878 40.3508L167.007 40.7421L167.139 41.1343L167.268 41.3957L167.399 41.9175L167.529 42.3093L167.66 42.701L167.792 43.0925L167.921 43.3542L168.051 43.8765L168.183 44.1364L168.312 44.6588L168.444 45.051L168.574 45.4428L168.704 45.8343L168.835 46.2255L168.965 46.4869H173.273L173.403 46.2255L173.534 45.8343L173.664 45.4428L173.795 44.9204L173.926 44.6588L174.055 44.1364L174.187 43.8765L174.316 43.3542L174.448 43.0925L174.578 42.5697L174.708 42.3093L174.839 41.7867L174.969 41.3957L175.101 41.1343L175.231 40.6122L175.359 40.3508L175.491 39.9593L175.622 39.568L175.753 39.1768L175.884 38.7845L176.014 38.3923L176.144 38.0003L176.274 37.7404V37.2173H176.537V37.479L176.666 38.0003L176.796 38.3923L176.927 38.653L177.057 39.1768L177.189 39.4372L177.318 39.828L177.449 40.2207L177.58 40.6122L177.71 41.0035L177.842 41.3957L177.972 41.7867L178.103 42.178L178.233 42.5697L178.362 42.9619L178.493 43.3542L178.624 43.7462L178.755 44.1364L178.885 44.6588L179.015 44.9204L179.147 45.4428L179.277 45.7037L179.408 46.2255L179.538 46.4869H184.236L184.365 46.0947L184.498 45.7037L184.627 45.4428L184.759 44.9204L184.889 44.6588L185.02 44.1364L185.152 43.7462L185.279 43.3542L185.411 42.9619L185.541 42.701L185.672 42.178L185.802 41.9175L185.932 41.5258L186.064 41.1343L186.195 40.7421L186.325 40.3508L186.456 39.9593L186.586 39.568L186.716 39.3064L186.848 38.7845L186.977 38.5226L187.107 38.1314L187.238 37.7404L187.369 37.3481L187.5 36.9559L187.63 36.6955L187.761 36.1736L187.891 35.9132L188.021 35.5205L188.151 35.1287L188.282 34.8678L188.414 34.3457L188.544 34.0843L188.674 33.6933L188.805 33.4314L188.934 32.9093L189.064 32.6479L189.196 32.2567L189.327 31.8657L189.458 31.604L189.587 31.0812L189.719 30.8198L189.848 30.4295L189.978 30.1676L190.109 29.7763L190.24 29.3841L190.371 28.9921L190.502 28.6009L190.632 28.3409L190.763 27.9482V27.6868H186.325L186.195 27.8166L186.064 28.2091L185.932 28.7307L185.802 29.1227L185.672 29.5144L185.541 30.0378L185.411 30.2984L185.279 30.8198L185.152 31.213L185.02 31.7348L184.889 32.1261L184.759 32.5173L184.627 33.0402L184.498 33.4314L184.365 33.9537L184.236 34.3457L184.106 34.737L183.975 35.1287L183.845 35.6506L183.715 36.1736L183.583 36.5646L183.454 37.0872L183.322 37.3481L183.193 37.8705L183.062 38.2617L182.931 38.7845L182.8 39.3064L182.669 39.6981L182.539 40.2207L182.409 40.6122V41.1343H182.149V40.7421L182.019 40.2207L181.887 39.828L181.756 39.4372L181.624 38.9144L181.495 38.5226L181.365 38.0003L181.234 37.7404L181.104 37.2173L180.973 36.8256L180.843 36.3032L180.711 35.9132L180.581 35.5205L180.451 34.9981L180.32 34.737L180.191 34.2147L180.06 33.9537L179.929 33.4314L179.799 32.9093L179.667 32.6479L179.538 32.1261L179.408 31.7348L179.277 31.3426L179.147 30.9506L179.015 30.5583L178.885 30.1676L178.755 29.7763L178.624 29.2535L178.493 28.9921L178.362 28.4713L178.233 28.2091L178.103 27.6868H173.011V27.9482L173.142 28.3409L173.273 28.6009L173.403 28.9921L173.534 29.2535L173.664 29.7763L173.795 30.1676L173.926 30.4295L174.055 30.8198L174.187 31.213L174.316 31.604L174.448 31.8657L174.578 32.386V33.0402L174.448 33.5625L174.316 33.8229L174.187 34.2147L174.055 34.4756L173.926 34.9981L173.795 35.2596L173.664 35.6506L173.534 36.0428L173.403 36.4341L173.273 36.8256L173.142 37.0872L173.011 37.6095L172.882 37.8705L172.751 38.3923L172.62 38.653L172.491 39.1768L172.359 39.568L172.228 39.828L172.097 40.3508L171.968 40.7421V41.1343H171.706V40.7421L171.576 40.2207L171.446 39.6981L171.315 39.3064L171.184 38.7845L171.052 38.3923L170.923 38.0003L170.794 37.6095L170.662 37.0872L170.532 36.5646L170.401 36.1736L170.27 35.6506L170.138 35.3901L170.009 34.8678L169.879 34.4756L169.748 33.9537L169.618 33.5625L169.488 33.1702L169.357 32.6479L169.227 32.386L169.095 31.8657L168.965 31.4724L168.835 31.0812L168.704 30.6889L168.574 30.1676L168.444 29.7763L168.312 29.3841L168.183 28.9921L168.051 28.6009L167.921 28.2091L167.792 27.8166L167.66 27.6868H162.439V27.9482Z" fill="black"/>
<path fill-rule="evenodd" clip-rule="evenodd" d="M196.631 38.6501L196.762 38.2589L196.892 37.9975L197.023 37.6067L197.154 37.3453L197.284 36.9531L197.415 36.5618L197.545 36.3004L197.677 35.9101L197.807 35.6477L197.937 35.2565L198.068 34.8647L198.198 34.4725L198.328 34.2116L198.459 33.8198L198.589 33.4281L198.721 33.0368L198.851 32.6446L198.98 32.3827L199.112 31.9919V32.514L199.242 32.9062L199.373 33.1672L199.503 33.6902L199.633 33.9506L199.765 34.4725L199.894 34.7339L200.026 35.1256L200.156 35.5174L200.287 35.9101L200.416 36.3004L200.548 36.6926L200.679 37.0844L200.809 37.4761L200.94 37.8679L201.071 38.2591L201.2 38.6504H196.632L196.631 38.6501ZM197.284 27.8138L197.153 28.2065L197.023 28.4684L196.892 28.8587L196.762 29.1201L196.63 29.3815L196.501 29.6419L196.37 30.0351L196.239 30.2956L196.11 30.6863L195.978 31.0786L195.848 31.34L195.717 31.7322L195.585 31.8631L195.456 32.2543L195.325 32.5147L195.195 32.907L195.064 33.1679L194.934 33.4288L194.803 33.8206L194.673 34.082L194.541 34.4732L194.412 34.7346L194.281 34.9956L194.15 35.257L194.019 35.6482L193.889 36.0405L193.758 36.1713L193.627 36.5625L193.498 36.8235L193.368 37.2152L193.236 37.4766L193.107 37.738L192.974 38.1293L192.845 38.3902L192.715 38.6509L192.584 38.9123L192.454 39.3045L192.322 39.5659L192.192 39.8259L192.062 40.2186L191.93 40.4795L191.801 40.74L191.67 41.0014L191.539 41.3936L191.408 41.654L191.278 41.9154L191.148 42.1759L191.016 42.5676L190.886 42.829L190.757 43.0904L190.626 43.4817L190.495 43.6135L190.365 44.0038L190.233 44.2652L190.103 44.5266L189.972 44.9184L189.842 45.1793L189.712 45.4407L189.58 45.7016L189.451 46.0929V46.3543H193.757L193.888 46.0929L194.018 45.7016L194.149 45.4407L194.28 45.0489L194.411 44.6567L194.54 44.3953L194.672 44.0035L194.802 43.6133L194.933 43.3519L195.063 42.9596L195.194 42.5674L195.324 42.1756C195.547 41.6259 198.084 41.9152 198.848 41.9152C199.613 41.9152 202.151 41.6259 202.373 42.1756L202.503 42.6987L202.633 43.0904L202.765 43.4817L202.894 43.7441L203.026 44.2649L203.156 44.5264L203.288 44.9181L203.418 45.3103L203.547 45.7016L203.678 46.0929L203.809 46.3543H209.159V46.0929L209.03 45.9625L208.898 45.5713L208.769 45.3103L208.639 45.0489L208.506 44.6567L208.377 44.3953L208.245 44.1344L208.116 43.8744L207.984 43.4817L207.854 43.2213L207.724 42.829L207.593 42.5676L207.463 42.3072L207.334 41.9154L207.202 41.654L207.072 41.2628L206.94 41.1319L206.811 40.7397L206.678 40.4793L206.549 40.0875L206.419 39.6958L206.288 39.4349L206.157 39.1744L206.027 38.9121L205.896 38.5203L205.767 38.2594L205.635 37.8681L205.504 37.4764L205.374 37.215L205.244 36.8232L205.112 36.5623L204.982 36.1711L204.851 35.9106L204.721 35.5179L204.589 35.257L204.46 34.8652L204.329 34.6038L204.198 34.2121L204.068 33.8203L203.937 33.5599L203.807 33.1676L203.676 32.9067L203.545 32.5145L203.416 32.1232L203.286 31.8628L203.154 31.4696L203.025 31.2101L202.892 30.8169L202.763 30.5555L202.631 30.0351L202.502 29.7737L202.372 29.3815L202.24 28.9893L202.111 28.7278L201.98 28.2063L201.849 27.9453L201.718 27.5536H197.412L197.28 27.8135L197.284 27.8138Z" fill="black"/>
<path d="M106.255 61.9818H99.907V54.5902C99.907 54.2515 99.7379 54.0822 99.399 54.0822H95.8723C95.5338 54.0822 95.3643 54.2517 95.3643 54.5902V73.7468C95.3643 74.0852 95.5338 74.2548 95.8723 74.2548H99.399C99.7379 74.2548 99.907 74.0852 99.907 73.7468V66.1856H106.255V73.7468C106.255 74.0852 106.424 74.2548 106.763 74.2548H110.289C110.628 74.2548 110.797 74.0852 110.797 73.7468V54.5902C110.797 54.2515 110.628 54.0822 110.289 54.0822H106.763C106.424 54.0822 106.255 54.2517 106.255 54.5902V61.9818ZM126.851 65.1982C126.851 60.9379 124.03 59.1887 120.559 59.1887C116.977 59.1887 114.014 60.9939 114.014 65.1982V68.7526C114.014 72.6742 116.977 74.6214 120.644 74.6214C123.126 74.6214 124.961 73.8594 126.399 72.7589C126.653 72.5614 126.653 72.3077 126.484 72.0537L125.016 70.1073C124.847 69.8533 124.622 69.7972 124.368 69.9945C123.352 70.5869 122.195 71.01 120.784 71.01C119.289 71.01 118.358 70.2764 118.358 68.8377V68.3865H126.342C126.681 68.3865 126.85 68.2169 126.85 67.9069V65.1984L126.851 65.1982ZM122.704 65.0002V65.5927H118.358V65.0002C118.358 63.4488 119.233 62.7714 120.531 62.7714C121.801 62.7714 122.704 63.4767 122.704 65.0002H122.704ZM130.8 60.5427C130.604 60.6838 130.406 60.9939 130.406 61.3047L130.433 63.5614C130.575 63.8438 130.857 63.8721 131.111 63.7309C131.929 63.2797 133.396 62.941 134.638 62.941C136.472 62.941 137.007 63.7593 137.007 65.2545V65.5369C136.302 65.4522 135.483 65.3673 134.609 65.3673C130.773 65.3673 128.459 66.8346 128.459 69.7686C128.459 73.0973 131.026 74.6214 135.089 74.6214C137.007 74.6214 139.237 74.3108 140.901 73.8028C141.183 73.7182 141.324 73.5209 141.324 73.2388V65.5085C141.324 61.2202 139.039 59.1889 135.146 59.1889C132.719 59.1889 132.127 59.6965 130.8 60.5429V60.5427ZM132.832 69.6558C132.832 68.7526 133.509 68.2451 135.061 68.2451C135.681 68.2451 136.443 68.3013 137.007 68.4141V70.8969C136.499 71.0097 135.738 71.1226 135.089 71.1226C133.735 71.1226 132.832 70.6429 132.832 69.6555V69.6558ZM151.255 74.452C151.453 74.4237 151.565 74.198 151.565 73.944V71.1228C151.565 70.7844 151.368 70.6153 151.03 70.6432C150.747 70.6716 150.437 70.6716 150.155 70.6716C149.055 70.6716 148.49 70.0228 148.49 68.6121V54.5902C148.49 54.2515 148.321 54.0822 148.011 54.0822H144.681C144.343 54.0822 144.173 54.2517 144.173 54.5902V69.148C144.173 72.5901 146.064 74.6216 149.393 74.6216C150.155 74.6216 150.775 74.5367 151.255 74.452ZM157.575 68.6684V63.5616H160.086C160.396 63.5616 160.594 63.3925 160.594 63.0825V60.3741C160.594 60.0635 160.396 59.8944 160.086 59.8944H157.547L157.208 56.5084C157.18 56.1981 157.011 56.0572 156.7 56.0572H153.766C153.428 56.0572 153.258 56.2268 153.258 56.5368V69.2048C153.258 72.8159 155.458 74.5935 158.732 74.5935C159.409 74.5935 160.03 74.5367 160.509 74.4523C160.791 74.396 160.904 74.1704 160.904 73.8882V71.1231C160.904 70.7846 160.735 70.6434 160.368 70.7C160.058 70.7283 159.719 70.7562 159.465 70.7562C158.224 70.7562 157.575 70.051 157.575 68.6686V68.6684ZM167.449 59.6402V54.5902C167.449 54.2515 167.28 54.0822 166.97 54.0822H163.641C163.303 54.0822 163.133 54.2517 163.133 54.5902V73.7468C163.133 74.0852 163.303 74.2548 163.641 74.2548H166.97C167.281 74.2548 167.449 74.0852 167.449 73.7468V63.3641C167.929 63.1667 168.691 62.9973 169.396 62.9973C171.061 62.9973 171.795 63.7877 171.795 65.7057V73.7465C171.795 74.085 171.964 74.2546 172.302 74.2546H175.631C175.97 74.2546 176.139 74.085 176.139 73.7465V65.7057C176.139 61.4738 173.797 59.1887 170.299 59.1887C169.114 59.1887 168.212 59.3578 167.449 59.6399V59.6402Z" fill="#C61531"/>
<path d="M186.527 53.554C186.108 53.3227 185.627 53.1901 185.113 53.1901C184.206 53.1901 183.396 53.6026 182.86 54.2513C182.321 53.6026 181.511 53.1901 180.602 53.1901C180.091 53.1901 179.611 53.3227 179.19 53.554C178.286 54.0541 177.675 55.0151 177.675 56.1202C177.675 56.4359 177.727 56.7388 177.82 57.022C178.322 59.2818 182.86 62.1295 182.86 62.1295C182.86 62.1295 187.392 59.2818 187.896 57.022C187.989 56.7388 188.041 56.4359 188.041 56.1202C188.041 55.0148 187.43 54.0558 186.527 53.554Z" fill="#C61531"/>
<path d="M178.548 57.1835H180.174L181.141 56.0139L182.064 58.1916L183.075 55.651L184.019 58.4336L185.096 57.1835H187.36" stroke="white" stroke-linejoin="round"/>
<defs>
<linearGradient id="paint0_linear_375_18177" x1="-11.073" y1="47.7231" x2="36.2717" y2="110.131" gradientUnits="userSpaceOnUse">
<stop stop-color="#F16137"/>
<stop offset="0.25098" stop-color="#F58534"/>
<stop offset="0.721569" stop-color="#FFCD28"/>
<stop offset="1" stop-color="#FAED21"/>
</linearGradient>
</defs>
</svg>
